<?xml version="1.0" encoding="UTF-8"?>
<svg width="239px" height="30px" viewBox="0 0 239 30" version="1.1" xmlns="http://www.w3.org/2000/svg" xmlns:xlink="http://www.w3.org/1999/xlink">
    <!-- Generator: Sketch 57 (83077) - https://sketch.com -->
    <title>Logotype</title>
    <desc>Created with Sketch.</desc>
    <g id="Landing" stroke="none" stroke-width="1" fill="none" fill-rule="evenodd">
        <g id="landing-a-desktop" transform="translate(-375.000000, -45.000000)">
            <g id="Header">
                <g id="Logotype" transform="translate(375.000000, 45.000000)">
                    <path d="M138.95755,6.25 C140.633107,6.25 142.143446,6.6303453 143.488612,7.3910473 C144.833777,8.1517493 145.881968,9.20016224 146.633215,10.5363176 C147.384463,11.8724729 147.760081,13.3642936 147.760081,15.0118243 C147.760081,16.6593551 147.384463,18.1492051 146.633215,19.4814189 C145.881968,20.8136328 144.833777,21.8581043 143.488612,22.6148649 C142.143446,23.3716254 140.633107,23.75 138.95755,23.75 C137.698916,23.75 136.522897,23.5273108 135.429458,23.0819257 C134.33602,22.6365406 133.403857,22.027594 132.632944,21.2550676 C131.86203,20.4825412 131.254355,19.5563117 130.8099,18.4763514 C130.365444,17.396391 130.14322,16.2415602 130.14322,15.0118243 C130.14322,13.7742055 130.365444,12.6154333 130.8099,11.535473 C131.254355,10.4555126 131.86203,9.52731244 132.632944,8.75084459 C133.403857,7.97437675 134.33602,7.36345943 135.429458,6.91807432 C136.522897,6.47268921 137.698916,6.25 138.95755,6.25 Z M119.414988,6.26182432 C121.334406,6.26182432 123.011904,6.78406009 124.447534,7.8285473 C125.883164,8.8730345 126.856625,10.2820857 127.367945,12.0557432 L125.633398,12.0557432 C125.145677,10.762944 124.353143,9.75197437 123.255771,9.02280405 C122.158399,8.29363374 120.878151,7.92905405 119.414988,7.92905405 C117.401173,7.92905405 115.74334,8.5931803 114.44144,9.9214527 C113.13954,11.2497251 112.4886,12.9464987 112.4886,15.0118243 C112.4886,17.07715 113.13954,18.7699821 114.44144,20.0903716 C115.74334,21.4107611 117.401173,22.0709459 119.414988,22.0709459 C120.92535,22.0709459 122.235096,21.6827178 123.344268,20.90625 C124.45344,20.1297822 125.247941,19.0557501 125.727795,17.6841216 L127.462342,17.6841216 C126.951022,19.5444913 125.973628,21.0185756 124.530132,22.1064189 C123.086635,23.1942622 121.381605,23.7381757 119.414988,23.7381757 C118.172087,23.7381757 117.013767,23.5194279 115.939995,23.0819257 C114.866222,22.6444235 113.951759,22.0433597 113.196579,21.2787162 C112.441398,20.5140728 111.847489,19.5917847 111.414833,18.5118243 C110.982178,17.431864 110.765853,16.265209 110.765853,15.0118243 C110.765853,13.3406448 111.135571,11.8389706 111.875019,10.5067568 C112.614467,9.17454289 113.642992,8.13401275 114.960625,7.38513514 C116.278258,6.63625752 117.763031,6.26182432 119.414988,6.26182432 Z M232.925492,6.32094595 C234.624648,6.32094595 235.97176,6.76435367 236.966868,7.65118243 C237.961976,8.53801119 238.459522,9.73422671 238.459522,11.2398649 L236.772174,11.2398649 C236.772174,10.2308508 236.412288,9.4287755 235.692507,8.83361486 C234.972725,8.23845423 234.038597,7.94087838 232.890093,7.94087838 C231.733722,7.94087838 230.789761,8.20889372 230.058179,8.74493243 C229.326598,9.28097115 228.960813,9.99436492 228.960813,10.8851351 C228.960813,11.1452716 228.988345,11.3837264 229.04341,11.6005068 C229.098476,11.8172871 229.194838,12.0123865 229.332502,12.1858108 C229.470165,12.3592351 229.603893,12.5129498 229.733689,12.6469595 C229.863486,12.7809691 230.052278,12.907094 230.300072,13.0253378 C230.547866,13.1435817 230.760257,13.2421167 230.937252,13.3209459 C231.114248,13.3997752 231.365971,13.4845153 231.692429,13.5751689 C232.018888,13.6658225 232.280444,13.7347971 232.477105,13.7820946 C232.673767,13.8293921 232.956955,13.896396 233.326679,13.9831081 C233.720003,14.0777032 234.02089,14.1506191 234.229352,14.2018581 C234.437813,14.2530971 234.726901,14.3319251 235.096625,14.4383446 C235.466349,14.544764 235.757404,14.6432991 235.969798,14.7339527 C236.182193,14.8246063 236.441782,14.9448191 236.748575,15.0945946 C237.055367,15.2443701 237.297257,15.3961141 237.474252,15.5498311 C237.651248,15.7035481 237.843973,15.8927354 238.052435,16.1173986 C238.260896,16.3420619 238.42019,16.5805168 238.53032,16.8327703 C238.640451,17.0850238 238.73288,17.3747168 238.807612,17.7018581 C238.882343,18.0289994 238.919708,18.3778135 238.919708,18.7483108 C238.919708,20.2618319 238.372997,21.4639595 237.279558,22.3547297 C236.18612,23.2454999 234.78591,23.6908784 233.078887,23.6908784 C231.230268,23.6908784 229.743528,23.2060859 228.618623,22.2364865 C227.493719,21.266887 226.931275,19.9662244 226.931275,18.3344595 L228.665822,18.3344595 C228.665822,19.4696003 229.070939,20.3682399 229.881185,21.0304054 C230.691431,21.6925709 231.753388,22.0236486 233.067087,22.0236486 C234.254924,22.0236486 235.23625,21.7241021 236.011097,21.125 C236.785944,20.5258979 237.173362,19.7376175 237.173362,18.7601351 C237.173362,18.5157645 237.145829,18.2891339 237.090764,18.0802365 C237.035699,17.871339 236.968835,17.6860932 236.89017,17.5244932 C236.811506,17.3628933 236.689577,17.207208 236.524381,17.0574324 C236.359186,16.9076569 236.215625,16.7835027 236.093695,16.6849662 C235.971764,16.5864297 235.784939,16.4839532 235.533212,16.3775338 C235.281485,16.2711143 235.078926,16.1883449 234.92553,16.129223 C234.772134,16.0701011 234.53811,15.9971851 234.223452,15.910473 C233.908793,15.8237608 233.672803,15.7606984 233.515474,15.7212838 C233.358144,15.6818692 233.102488,15.6227481 232.748497,15.5439189 C232.36304,15.4572068 232.066086,15.3882322 231.857624,15.3369932 C231.649163,15.2857542 231.365974,15.2088969 231.00805,15.1064189 C230.650126,15.0039409 230.366938,14.9093473 230.158476,14.8226351 C229.950015,14.735923 229.696325,14.6196516 229.3974,14.4738176 C229.098474,14.3279835 228.860517,14.1801809 228.683521,14.0304054 C228.506526,13.8806299 228.317734,13.6993254 228.117139,13.4864865 C227.916544,13.2736476 227.76315,13.0450463 227.656953,12.8006757 C227.550756,12.5563051 227.460293,12.2784362 227.385561,11.9670608 C227.31083,11.6556854 227.273465,11.3186955 227.273465,10.9560811 C227.273465,9.52927215 227.784777,8.40006046 228.807418,7.56841216 C229.830058,6.73676386 231.202736,6.32094595 232.925492,6.32094595 Z M38.8108361,6.52668919 L42.1314396,17.7901356 L46.5747794,6.69838207 L47.8094029,6.69838207 L52.3735711,17.7867453 L55.6214357,6.52668919 L59.4417856,6.52668919 L54.2241778,23.4780405 L50.96858,23.4780405 L47.1900373,13.9746286 L43.520965,23.4780405 L40.2653672,23.4780405 L34.9269311,6.52668919 L38.8108361,6.52668919 Z M65.9928537,6.52668919 L65.9928537,13.0563497 L72.3595388,13.0563497 L72.3595388,6.52668919 L76.019428,6.52668919 L76.019428,23.4780405 L72.3595388,23.4780405 L72.3595388,16.4686568 L65.9928537,16.4686568 L65.9928537,23.4780405 L62.3329645,23.4780405 L62.3329645,6.52668919 L65.9928537,6.52668919 Z M88.8646852,6.52668919 L95.7079168,23.4780405 L91.7360488,23.4780405 L90.5550731,20.2640643 L83.8234868,20.2640643 L82.6628101,23.4780405 L78.7786636,23.4780405 L85.4089958,6.52668919 L88.8646852,6.52668919 Z M108.500251,6.52668919 L108.500251,9.93027845 L103.796888,9.93027845 L103.796888,23.4780405 L100.136757,23.4780405 L100.136757,9.93027845 L95.4333945,9.93027845 L95.4333945,6.52668919 L108.500251,6.52668919 Z M152.77223,6.52195946 L162.837322,20.3800676 L162.837322,6.52195946 L164.501071,6.52195946 L164.501071,23.4780405 L163.073315,23.4780405 L152.890227,9.50168919 L152.890227,23.4780405 L151.238277,23.4780405 L151.238277,6.52195946 L152.77223,6.52195946 Z M169.373311,6.52195946 L175.202332,20.9239865 L180.913358,6.52195946 L182.765901,6.52195946 L175.981109,23.4780405 L174.435356,23.4780405 L167.497168,6.52195946 L169.373311,6.52195946 Z M195.260707,6.52195946 L195.260707,8.14189189 L187.531944,8.14189189 L187.531944,13.9239865 L194.635326,13.9239865 L194.635326,15.5084459 L187.531944,15.5084459 L187.531944,21.8462838 L195.532099,21.8462838 L195.532099,23.4780405 L185.844595,23.4780405 L185.844595,6.52195946 L195.260707,6.52195946 Z M205.038225,6.52195946 C206.595785,6.52195946 207.8839,7.00083981 208.902607,7.95861486 C209.921314,8.91638992 210.43066,10.128371 210.43066,11.5945946 C210.43066,12.8006817 210.066841,13.8431825 209.339193,14.7221284 C208.611545,15.6010742 207.657751,16.1784896 206.477781,16.4543919 L210.643054,23.4780405 L208.731512,23.4780405 L204.684236,16.6081081 L200.400967,16.6081081 L200.400967,23.4780405 L198.713619,23.4780405 L198.713619,6.52195946 L205.038225,6.52195946 Z M224.81678,6.52195946 L224.81678,8.11824324 L219.542341,8.11824324 L219.542341,23.4780405 L217.854993,23.4780405 L217.854993,8.11824324 L212.592354,8.11824324 L212.592354,6.52195946 L224.81678,6.52195946 Z M138.95755,7.91722973 C137.612385,7.91722973 136.399001,8.22662979 135.317362,8.84543919 C134.235723,9.46424859 133.39009,10.3136207 132.780439,11.3935811 C132.170788,12.4735414 131.865967,13.6796105 131.865967,15.0118243 C131.865967,16.3361553 132.170788,17.5382829 132.780439,18.6182432 C133.39009,19.6982036 134.235723,20.5475757 135.317362,21.1663851 C136.399001,21.7851945 137.612385,22.0945946 138.95755,22.0945946 C140.994965,22.0945946 142.684263,21.4206148 144.025495,20.0726351 C145.366727,18.7246554 146.037334,17.0377354 146.037334,15.0118243 C146.037334,13.6796105 145.734479,12.4715707 145.128761,11.3876689 C144.523044,10.3037671 143.679378,9.45439497 142.597739,8.83952703 C141.5161,8.22465909 140.302716,7.91722973 138.95755,7.91722973 Z M87.1733305,11.0064472 L84.9653142,17.0675238 L89.4040626,17.0675238 L87.1733305,11.0064472 Z M204.955628,8.14189189 L200.400967,8.14189189 L200.400967,15 L204.955628,15 C206.064799,15 206.965496,14.6787757 207.657745,14.0363176 C208.349994,13.3938594 208.696113,12.5720771 208.696113,11.5709459 C208.696113,10.5698148 208.348027,9.74803249 207.651845,9.10557432 C206.955663,8.46311616 206.056933,8.14189189 204.955628,8.14189189 Z" id="Shape" fill="#2A2F4B" fill-rule="nonzero"></path>
                    <path d="M5.07242355,15.3433169 L5.07242355,19.2740277 L12.9172657,23.6362316 L25.8345313,16.4339517 L25.8345313,22.6716585 L12.9172657,30 L2.23820962e-13,22.8962897 L2.23820962e-13,18.2135673 L5.07242355,15.3433169 Z M13.0188078,11.2235136 L16.4448099,12.5582253 L16.4448099,17.6597005 L12.9172657,19.3273357 L9.59280575,17.6597005 L9.59280575,12.5582253 L13.0188078,11.2235136 Z M12.9172657,0 L25.8345313,7.10371033 L25.8345313,11.7864327 L20.7621078,14.6566831 L20.7621078,10.7259723 L12.9172657,6.36376844 L2.23820962e-13,13.5660483 L2.23820962e-13,7.32834153 L12.9172657,0 Z" id="Icon" fill="#3062D3"></path>
                </g>
            </g>
        </g>
    </g>
</svg>